# MagicaVoxel @ Ephtracy

# group
o 

# material
mtllib banqueta.mtl
usemtl palette

# normals
vn -1 0 0
vn 1 0 0
vn 0 0 1
vn 0 0 -1
vn 0 -1 0
vn 0 1 0

# texcoords
vt 0.0175781 0.5
vt 0.0410156 0.5
vt 0.966797 0.5
vt 0.970703 0.5
vt 0.994141 0.5

# verts
v 0 2 0
v 0 2 -0.2
v 0 2 -2.4
v 0 2 -2.6
v 0 2 -7
v 0 2.1 -2.4
v 0 2.1 -2.6
v 0 2.2 0
v 0 2.2 -0.2
v 0 2.2 -2.4
v 0 2.3 -2.4
v 0 2.3 -7
v 12.6 2 0
v 12.6 2 -0.2
v 12.6 2 -2.4
v 12.6 2 -2.6
v 12.6 2 -7
v 12.6 2.1 -2.4
v 12.6 2.1 -2.6
v 12.6 2.2 0
v 12.6 2.2 -0.2
v 12.6 2.2 -2.4
v 12.6 2.3 -2.4
v 12.6 2.3 -7
v 0 2 0
v 0 2.2 0
v 0.8 2.1 0
v 0.8 2.2 0
v 2 2.1 0
v 2 2.2 0
v 2.8 2.1 0
v 2.8 2.2 0
v 3.4 2.1 0
v 3.4 2.2 0
v 5.7 2 0
v 5.7 2.2 0
v 5.8 2 0
v 5.8 2.2 0
v 8.5 2.1 0
v 8.5 2.2 0
v 9.3 2.1 0
v 9.3 2.2 0
v 10.4 2.1 0
v 10.4 2.2 0
v 10.7 2.1 0
v 10.7 2.2 0
v 12.6 2 0
v 12.6 2.2 0
v 0 2.2 -2.4
v 0 2.3 -2.4
v 12.6 2.2 -2.4
v 12.6 2.3 -2.4
v 0 2 -7
v 0 2.3 -7
v 12.6 2 -7
v 12.6 2.3 -7
v 0 2 0
v 5.7 2 0
v 5.8 2 0
v 12.6 2 0
v 5.7 2 -0.1
v 5.8 2 -0.1
v 0 2 -0.2
v 12.6 2 -0.2
v 0 2 -2.4
v 12.6 2 -2.4
v 0 2 -2.6
v 12.6 2 -2.6
v 0 2 -7
v 12.6 2 -7
v 0 2.2 0
v 0.8 2.2 0
v 2 2.2 0
v 2.8 2.2 0
v 3.4 2.2 0
v 5.7 2.2 0
v 5.8 2.2 0
v 8.5 2.2 0
v 9.3 2.2 0
v 10.4 2.2 0
v 10.7 2.2 0
v 12.6 2.2 0
v 0.2 2.2 -0.1
v 0.3 2.2 -0.1
v 0.8 2.2 -0.1
v 2 2.2 -0.1
v 2.5 2.2 -0.1
v 2.6 2.2 -0.1
v 2.8 2.2 -0.1
v 3.4 2.2 -0.1
v 4.3 2.2 -0.1
v 4.8 2.2 -0.1
v 5.7 2.2 -0.1
v 5.8 2.2 -0.1
v 8.5 2.2 -0.1
v 9.3 2.2 -0.1
v 10.4 2.2 -0.1
v 10.7 2.2 -0.1
v 11.4 2.2 -0.1
v 11.5 2.2 -0.1
v 0 2.2 -0.2
v 0.2 2.2 -0.2
v 0.3 2.2 -0.2
v 2.5 2.2 -0.2
v 2.6 2.2 -0.2
v 4.3 2.2 -0.2
v 4.8 2.2 -0.2
v 11.4 2.2 -0.2
v 11.5 2.2 -0.2
v 12.6 2.2 -0.2
v 2.2 2.2 -0.4
v 2.3 2.2 -0.4
v 4.2 2.2 -0.4
v 4.8 2.2 -0.4
v 6.3 2.2 -0.4
v 6.5 2.2 -0.4
v 11.3 2.2 -0.4
v 11.4 2.2 -0.4
v 0.2 2.2 -0.5
v 0.3 2.2 -0.5
v 2 2.2 -0.5
v 2.2 2.2 -0.5
v 2.3 2.2 -0.5
v 2.8 2.2 -0.5
v 3 2.2 -0.5
v 4.2 2.2 -0.5
v 4.8 2.2 -0.5
v 5.4 2.2 -0.5
v 6.3 2.2 -0.5
v 6.5 2.2 -0.5
v 6.8 2.2 -0.5
v 10.6 2.2 -0.5
v 10.7 2.2 -0.5
v 11.2 2.2 -0.5
v 11.3 2.2 -0.5
v 11.4 2.2 -0.5
v 12.1 2.2 -0.5
v 12.2 2.2 -0.5
v 1.8 2.2 -0.6
v 2 2.2 -0.6
v 2.2 2.2 -0.6
v 2.8 2.2 -0.6
v 3 2.2 -0.6
v 3.3 2.2 -0.6
v 4.8 2.2 -0.6
v 5.4 2.2 -0.6
v 6.5 2.2 -0.6
v 6.8 2.2 -0.6
v 7.5 2.2 -0.6
v 7.7 2.2 -0.6
v 11 2.2 -0.6
v 11.2 2.2 -0.6
v 11.3 2.2 -0.6
v 12.1 2.2 -0.6
v 12.2 2.2 -0.6
v 12.3 2.2 -0.6
v 1.6 2.2 -0.7
v 1.8 2.2 -0.7
v 2 2.2 -0.7
v 3 2.2 -0.7
v 3.3 2.2 -0.7
v 3.5 2.2 -0.7
v 4.9 2.2 -0.7
v 5 2.2 -0.7
v 7.6 2.2 -0.7
v 7.7 2.2 -0.7
v 8.7 2.2 -0.7
v 9.1 2.2 -0.7
v 10.6 2.2 -0.7
v 10.7 2.2 -0.7
v 10.9 2.2 -0.7
v 11 2.2 -0.7
v 11.2 2.2 -0.7
v 0.2 2.2 -0.8
v 0.3 2.2 -0.8
v 1.5 2.2 -0.8
v 1.6 2.2 -0.8
v 1.8 2.2 -0.8
v 3.3 2.2 -0.8
v 3.5 2.2 -0.8
v 4.8 2.2 -0.8
v 4.9 2.2 -0.8
v 5 2.2 -0.8
v 8.7 2.2 -0.8
v 9.1 2.2 -0.8
v 9.6 2.2 -0.8
v 10.4 2.2 -0.8
v 10.5 2.2 -0.8
v 10.9 2.2 -0.8
v 11 2.2 -0.8
v 11.5 2.2 -0.8
v 11.7 2.2 -0.8
v 12.2 2.2 -0.8
v 12.3 2.2 -0.8
v 0.8 2.2 -0.9
v 0.9 2.2 -0.9
v 1.5 2.2 -0.9
v 1.6 2.2 -0.9
v 3.8 2.2 -0.9
v 3.9 2.2 -0.9
v 4.6 2.2 -0.9
v 4.8 2.2 -0.9
v 4.9 2.2 -0.9
v 7.4 2.2 -0.9
v 7.5 2.2 -0.9
v 7.6 2.2 -0.9
v 9.1 2.2 -0.9
v 9.6 2.2 -0.9
v 10.2 2.2 -0.9
v 10.4 2.2 -0.9
v 10.5 2.2 -0.9
v 11.3 2.2 -0.9
v 11.5 2.2 -0.9
v 11.7 2.2 -0.9
v 0.8 2.2 -1
v 0.9 2.2 -1
v 3.8 2.2 -1
v 3.9 2.2 -1
v 4 2.2 -1
v 4.5 2.2 -1
v 4.6 2.2 -1
v 4.8 2.2 -1
v 6.2 2.2 -1
v 6.3 2.2 -1
v 10.1 2.2 -1
v 10.2 2.2 -1
v 10.4 2.2 -1
v 11.3 2.2 -1
v 11.5 2.2 -1
v 2.7 2.2 -1.1
v 2.9 2.2 -1.1
v 3.9 2.2 -1.1
v 4 2.2 -1.1
v 4.5 2.2 -1.1
v 4.6 2.2 -1.1
v 6.1 2.2 -1.1
v 6.2 2.2 -1.1
v 6.3 2.2 -1.1
v 7.3 2.2 -1.1
v 7.4 2.2 -1.1
v 7.5 2.2 -1.1
v 10.1 2.2 -1.1
v 10.2 2.2 -1.1
v 2.3 2.2 -1.2
v 2.7 2.2 -1.2
v 2.9 2.2 -1.2
v 5.3 2.2 -1.2
v 5.5 2.2 -1.2
v 6.1 2.2 -1.2
v 6.2 2.2 -1.2
v 7.9 2.2 -1.2
v 8.1 2.2 -1.2
v 12.2 2.2 -1.2
v 12.3 2.2 -1.2
v 1.9 2.2 -1.3
v 2.3 2.2 -1.3
v 2.7 2.2 -1.3
v 5.3 2.2 -1.3
v 5.5 2.2 -1.3
v 5.9 2.2 -1.3
v 7.2 2.2 -1.3
v 7.3 2.2 -1.3
v 7.4 2.2 -1.3
v 7.7 2.2 -1.3
v 7.9 2.2 -1.3
v 8.1 2.2 -1.3
v 8.5 2.2 -1.3
v 8.9 2.2 -1.3
v 10.8 2.2 -1.3
v 10.9 2.2 -1.3
v 0.7 2.2 -1.4
v 0.8 2.2 -1.4
v 1.6 2.2 -1.4
v 1.9 2.2 -1.4
v 2.3 2.2 -1.4
v 5.5 2.2 -1.4
v 5.9 2.2 -1.4
v 6.2 2.2 -1.4
v 7.7 2.2 -1.4
v 7.9 2.2 -1.4
v 8.5 2.2 -1.4
v 8.9 2.2 -1.4
v 9.3 2.2 -1.4
v 10.8 2.2 -1.4
v 10.9 2.2 -1.4
v 11.1 2.2 -1.4
v 12.2 2.2 -1.4
v 12.3 2.2 -1.4
v 0.5 2.2 -1.5
v 0.7 2.2 -1.5
v 0.8 2.2 -1.5
v 1.6 2.2 -1.5
v 1.9 2.2 -1.5
v 7.1 2.2 -1.5
v 7.2 2.2 -1.5
v 7.3 2.2 -1.5
v 8.9 2.2 -1.5
v 9.3 2.2 -1.5
v 10.9 2.2 -1.5
v 11.1 2.2 -1.5
v 11.3 2.2 -1.5
v 0.4 2.2 -1.6
v 0.5 2.2 -1.6
v 0.7 2.2 -1.6
v 4.5 2.2 -1.6
v 4.7 2.2 -1.6
v 5.9 2.2 -1.6
v 6.2 2.2 -1.6
v 6.5 2.2 -1.6
v 7.1 2.2 -1.6
v 7.2 2.2 -1.6
v 11.1 2.2 -1.6
v 11.3 2.2 -1.6
v 11.8 2.2 -1.6
v 12 2.2 -1.6
v 0.4 2.2 -1.7
v 0.5 2.2 -1.7
v 4.5 2.2 -1.7
v 4.7 2.2 -1.7
v 4.9 2.2 -1.7
v 6.2 2.2 -1.7
v 6.5 2.2 -1.7
v 8.6 2.2 -1.7
v 9.3 2.2 -1.7
v 10.1 2.2 -1.7
v 10.3 2.2 -1.7
v 11.8 2.2 -1.7
v 12 2.2 -1.7
v 1.3 2.2 -1.8
v 1.6 2.2 -1.8
v 3 2.2 -1.8
v 3.7 2.2 -1.8
v 4.7 2.2 -1.8
v 4.9 2.2 -1.8
v 8.6 2.2 -1.8
v 9.3 2.2 -1.8
v 10.1 2.2 -1.8
v 10.3 2.2 -1.8
v 1 2.2 -1.9
v 1.3 2.2 -1.9
v 1.6 2.2 -1.9
v 3 2.2 -1.9
v 3.7 2.2 -1.9
v 7.1 2.2 -1.9
v 7.3 2.2 -1.9
v 1 2.2 -2
v 1.3 2.2 -2
v 1.5 2.2 -2
v 1.7 2.2 -2
v 6.8 2.2 -2
v 7.1 2.2 -2
v 7.3 2.2 -2
v 1.2 2.2 -2.1
v 1.5 2.2 -2.1
v 1.7 2.2 -2.1
v 6.8 2.2 -2.1
v 7.1 2.2 -2.1
v 1.2 2.2 -2.2
v 1.5 2.2 -2.2
v 0 2.2 -2.4
v 12.6 2.2 -2.4
v 0 2.3 -2.4
v 12.6 2.3 -2.4
v 0 2.3 -7
v 12.6 2.3 -7

# faces
f 6/4/1 3/4/1 2/4/1
f 6/5/1 4/5/1 3/5/1
f 7/4/1 5/4/1 4/4/1
f 7/5/1 4/5/1 6/5/1
f 8/1/1 2/1/1 1/1/1
f 9/4/1 6/4/1 2/4/1
f 9/1/1 2/1/1 8/1/1
f 9/4/1 7/4/1 6/4/1
f 10/4/1 7/4/1 9/4/1
f 11/4/1 7/4/1 10/4/1
f 12/4/1 5/4/1 7/4/1
f 12/4/1 7/4/1 11/4/1
f 14/4/2 15/4/2 18/4/2
f 15/5/2 16/5/2 18/5/2
f 16/4/2 17/4/2 19/4/2
f 18/5/2 16/5/2 19/5/2
f 13/1/2 14/1/2 20/1/2
f 14/4/2 18/4/2 21/4/2
f 20/1/2 14/1/2 21/1/2
f 18/4/2 19/4/2 21/4/2
f 21/4/2 19/4/2 22/4/2
f 22/4/2 19/4/2 23/4/2
f 19/4/2 17/4/2 24/4/2
f 23/4/2 19/4/2 24/4/2
f 27/1/3 26/1/3 25/1/3
f 28/1/3 26/1/3 27/1/3
f 29/1/3 27/1/3 25/1/3
f 29/2/3 28/2/3 27/2/3
f 30/2/3 28/2/3 29/2/3
f 31/1/3 29/1/3 25/1/3
f 31/1/3 30/1/3 29/1/3
f 32/1/3 30/1/3 31/1/3
f 33/1/3 31/1/3 25/1/3
f 33/2/3 32/2/3 31/2/3
f 34/2/3 32/2/3 33/2/3
f 35/1/3 33/1/3 25/1/3
f 35/1/3 34/1/3 33/1/3
f 36/1/3 34/1/3 35/1/3
f 37/2/3 36/2/3 35/2/3
f 38/2/3 36/2/3 37/2/3
f 39/1/3 38/1/3 37/1/3
f 40/1/3 38/1/3 39/1/3
f 41/1/3 39/1/3 37/1/3
f 41/2/3 40/2/3 39/2/3
f 42/2/3 40/2/3 41/2/3
f 43/1/3 41/1/3 37/1/3
f 43/1/3 42/1/3 41/1/3
f 44/1/3 42/1/3 43/1/3
f 45/1/3 43/1/3 37/1/3
f 45/2/3 44/2/3 43/2/3
f 46/2/3 44/2/3 45/2/3
f 47/1/3 45/1/3 37/1/3
f 47/1/3 46/1/3 45/1/3
f 48/1/3 46/1/3 47/1/3
f 51/4/3 50/4/3 49/4/3
f 52/4/3 50/4/3 51/4/3
f 53/4/4 54/4/4 55/4/4
f 55/4/4 54/4/4 56/4/4
f 61/1/5 58/1/5 57/1/5
f 61/2/5 59/2/5 58/2/5
f 62/1/5 60/1/5 59/1/5
f 62/2/5 59/2/5 61/2/5
f 63/1/5 61/1/5 57/1/5
f 63/1/5 62/1/5 61/1/5
f 64/1/5 60/1/5 62/1/5
f 64/1/5 62/1/5 63/1/5
f 65/4/5 64/4/5 63/4/5
f 66/4/5 64/4/5 65/4/5
f 67/5/5 66/5/5 65/5/5
f 68/5/5 66/5/5 67/5/5
f 69/4/5 68/4/5 67/4/5
f 70/4/5 68/4/5 69/4/5
f 71/1/6 72/1/6 83/1/6
f 83/1/6 72/1/6 84/1/6
f 72/2/6 73/2/6 85/2/6
f 84/1/6 72/1/6 85/1/6
f 73/1/6 74/1/6 86/1/6
f 85/2/6 73/2/6 86/2/6
f 86/1/6 74/1/6 87/1/6
f 87/1/6 74/1/6 88/1/6
f 74/2/6 75/2/6 89/2/6
f 88/1/6 74/1/6 89/1/6
f 75/1/6 76/1/6 90/1/6
f 89/2/6 75/2/6 90/2/6
f 90/1/6 76/1/6 91/1/6
f 91/1/6 76/1/6 92/1/6
f 76/2/6 77/2/6 93/2/6
f 92/1/6 76/1/6 93/1/6
f 77/1/6 78/1/6 94/1/6
f 93/2/6 77/2/6 94/2/6
f 78/2/6 79/2/6 95/2/6
f 94/1/6 78/1/6 95/1/6
f 79/1/6 80/1/6 96/1/6
f 95/2/6 79/2/6 96/2/6
f 80/2/6 81/2/6 97/2/6
f 96/1/6 80/1/6 97/1/6
f 81/1/6 82/1/6 98/1/6
f 97/2/6 81/2/6 98/2/6
f 98/1/6 82/1/6 99/1/6
f 99/1/6 82/1/6 100/1/6
f 71/1/6 83/1/6 101/1/6
f 83/2/6 84/2/6 102/2/6
f 101/1/6 83/1/6 102/1/6
f 84/1/6 85/1/6 103/1/6
f 102/2/6 84/2/6 103/2/6
f 85/1/6 86/1/6 103/1/6
f 86/1/6 87/1/6 103/1/6
f 87/2/6 88/2/6 104/2/6
f 103/1/6 87/1/6 104/1/6
f 88/1/6 89/1/6 105/1/6
f 104/2/6 88/2/6 105/2/6
f 89/1/6 90/1/6 105/1/6
f 90/1/6 91/1/6 105/1/6
f 91/2/6 92/2/6 106/2/6
f 105/1/6 91/1/6 106/1/6
f 96/1/6 97/1/6 107/1/6
f 106/2/6 92/2/6 107/2/6
f 92/1/6 93/1/6 107/1/6
f 97/1/6 98/1/6 107/1/6
f 98/1/6 99/1/6 107/1/6
f 93/1/6 94/1/6 107/1/6
f 94/1/6 95/1/6 107/1/6
f 95/1/6 96/1/6 107/1/6
f 99/2/6 100/2/6 108/2/6
f 107/1/6 99/1/6 108/1/6
f 100/1/6 82/1/6 109/1/6
f 108/2/6 100/2/6 109/2/6
f 109/1/6 82/1/6 110/1/6
f 105/4/6 106/4/6 111/4/6
f 101/4/6 102/4/6 111/4/6
f 109/4/6 110/4/6 111/4/6
f 108/4/6 109/4/6 111/4/6
f 107/4/6 108/4/6 111/4/6
f 106/4/6 107/4/6 111/4/6
f 104/4/6 105/4/6 111/4/6
f 103/4/6 104/4/6 111/4/6
f 102/4/6 103/4/6 111/4/6
f 111/4/6 110/4/6 112/4/6
f 112/4/6 110/4/6 113/4/6
f 113/4/6 110/4/6 114/4/6
f 114/4/6 110/4/6 115/4/6
f 115/4/6 110/4/6 116/4/6
f 116/4/6 110/4/6 117/4/6
f 117/4/6 110/4/6 118/4/6
f 101/4/6 111/4/6 119/4/6
f 119/4/6 111/4/6 120/4/6
f 120/4/6 111/4/6 121/4/6
f 111/3/6 112/3/6 122/3/6
f 121/4/6 111/4/6 122/4/6
f 112/4/6 113/4/6 123/4/6
f 122/3/6 112/3/6 123/3/6
f 123/4/6 113/4/6 124/4/6
f 124/4/6 113/4/6 125/4/6
f 113/3/6 114/3/6 126/3/6
f 125/4/6 113/4/6 126/4/6
f 114/4/6 115/4/6 127/4/6
f 126/3/6 114/3/6 127/3/6
f 127/4/6 115/4/6 128/4/6
f 115/3/6 116/3/6 129/3/6
f 128/4/6 115/4/6 129/4/6
f 116/4/6 117/4/6 130/4/6
f 129/3/6 116/3/6 130/3/6
f 130/4/6 117/4/6 131/4/6
f 131/4/6 117/4/6 132/4/6
f 132/4/6 117/4/6 133/4/6
f 133/4/6 117/4/6 134/4/6
f 117/3/6 118/3/6 135/3/6
f 134/4/6 117/4/6 135/4/6
f 118/4/6 110/4/6 136/4/6
f 135/3/6 118/3/6 136/3/6
f 136/4/6 110/4/6 137/4/6
f 137/4/6 110/4/6 138/4/6
f 120/4/6 121/4/6 139/4/6
f 121/3/6 122/3/6 140/3/6
f 139/4/6 121/4/6 140/4/6
f 122/4/6 123/4/6 141/4/6
f 140/3/6 122/3/6 141/3/6
f 123/4/6 124/4/6 141/4/6
f 124/3/6 125/3/6 142/3/6
f 141/4/6 124/4/6 142/4/6
f 125/4/6 126/4/6 143/4/6
f 142/3/6 125/3/6 143/3/6
f 126/4/6 127/4/6 143/4/6
f 143/4/6 127/4/6 144/4/6
f 127/3/6 128/3/6 145/3/6
f 144/4/6 127/4/6 145/4/6
f 128/4/6 129/4/6 146/4/6
f 145/3/6 128/3/6 146/3/6
f 129/4/6 130/4/6 146/4/6
f 130/3/6 131/3/6 147/3/6
f 146/4/6 130/4/6 147/4/6
f 131/4/6 132/4/6 148/4/6
f 147/3/6 131/3/6 148/3/6
f 148/4/6 132/4/6 149/4/6
f 149/4/6 132/4/6 150/4/6
f 133/4/6 134/4/6 151/4/6
f 134/3/6 135/3/6 152/3/6
f 151/4/6 134/4/6 152/4/6
f 136/4/6 137/4/6 153/4/6
f 152/3/6 135/3/6 153/3/6
f 135/4/6 136/4/6 153/4/6
f 137/3/6 138/3/6 154/3/6
f 153/4/6 137/4/6 154/4/6
f 138/4/6 110/4/6 155/4/6
f 154/3/6 138/3/6 155/3/6
f 155/4/6 110/4/6 156/4/6
f 120/4/6 139/4/6 157/4/6
f 139/3/6 140/3/6 158/3/6
f 157/4/6 139/4/6 158/4/6
f 140/4/6 141/4/6 159/4/6
f 158/3/6 140/3/6 159/3/6
f 141/4/6 142/4/6 159/4/6
f 142/4/6 143/4/6 159/4/6
f 143/3/6 144/3/6 160/3/6
f 159/4/6 143/4/6 160/4/6
f 144/4/6 145/4/6 161/4/6
f 160/3/6 144/3/6 161/3/6
f 145/4/6 146/4/6 161/4/6
f 148/4/6 149/4/6 161/4/6
f 147/4/6 148/4/6 161/4/6
f 146/4/6 147/4/6 161/4/6
f 161/4/6 149/4/6 162/4/6
f 162/4/6 149/4/6 163/4/6
f 163/4/6 149/4/6 164/4/6
f 149/3/6 150/3/6 165/3/6
f 150/4/6 132/4/6 166/4/6
f 165/3/6 150/3/6 166/3/6
f 166/4/6 132/4/6 167/4/6
f 167/4/6 132/4/6 168/4/6
f 132/3/6 133/3/6 169/3/6
f 168/4/6 132/4/6 169/4/6
f 133/4/6 151/4/6 170/4/6
f 169/3/6 133/3/6 170/3/6
f 170/4/6 151/4/6 171/4/6
f 151/3/6 152/3/6 172/3/6
f 171/4/6 151/4/6 172/4/6
f 153/4/6 154/4/6 173/4/6
f 172/3/6 152/3/6 173/3/6
f 152/4/6 153/4/6 173/4/6
f 154/4/6 155/4/6 173/4/6
f 101/4/6 119/4/6 174/4/6
f 119/3/6 120/3/6 174/3/6
f 120/4/6 157/4/6 175/4/6
f 174/3/6 120/3/6 175/3/6
f 175/4/6 157/4/6 176/4/6
f 157/3/6 158/3/6 177/3/6
f 176/4/6 157/4/6 177/4/6
f 158/4/6 159/4/6 178/4/6
f 177/3/6 158/3/6 178/3/6
f 159/4/6 160/4/6 178/4/6
f 160/4/6 161/4/6 178/4/6
f 161/3/6 162/3/6 179/3/6
f 178/4/6 161/4/6 179/4/6
f 162/4/6 163/4/6 180/4/6
f 179/3/6 162/3/6 180/3/6
f 180/4/6 163/4/6 181/4/6
f 163/3/6 164/3/6 182/3/6
f 181/4/6 163/4/6 182/4/6
f 164/4/6 149/4/6 183/4/6
f 182/3/6 164/3/6 183/3/6
f 166/4/6 167/4/6 184/4/6
f 167/3/6 168/3/6 184/3/6
f 165/4/6 166/4/6 184/4/6
f 168/4/6 169/4/6 185/4/6
f 184/3/6 168/3/6 185/3/6
f 169/4/6 170/4/6 185/4/6
f 170/4/6 171/4/6 185/4/6
f 185/4/6 171/4/6 186/4/6
f 186/4/6 171/4/6 187/4/6
f 187/4/6 171/4/6 188/4/6
f 171/3/6 172/3/6 189/3/6
f 188/4/6 171/4/6 189/4/6
f 172/4/6 173/4/6 190/4/6
f 189/3/6 172/3/6 190/3/6
f 173/4/6 155/4/6 191/4/6
f 190/4/6 173/4/6 191/4/6
f 191/4/6 155/4/6 192/4/6
f 155/3/6 156/3/6 193/3/6
f 192/4/6 155/4/6 193/4/6
f 156/4/6 110/4/6 194/4/6
f 193/3/6 156/3/6 194/3/6
f 175/4/6 176/4/6 195/4/6
f 174/4/6 175/4/6 195/4/6
f 195/4/6 176/4/6 196/4/6
f 176/3/6 177/3/6 197/3/6
f 196/4/6 176/4/6 197/4/6
f 180/4/6 181/4/6 198/4/6
f 197/3/6 177/3/6 198/3/6
f 178/4/6 179/4/6 198/4/6
f 179/4/6 180/4/6 198/4/6
f 177/4/6 178/4/6 198/4/6
f 198/4/6 181/4/6 199/4/6
f 199/4/6 181/4/6 200/4/6
f 200/4/6 181/4/6 201/4/6
f 181/3/6 182/3/6 202/3/6
f 201/4/6 181/4/6 202/4/6
f 182/4/6 183/4/6 203/4/6
f 202/3/6 182/3/6 203/3/6
f 183/4/6 149/4/6 204/4/6
f 203/4/6 183/4/6 204/4/6
f 149/3/6 165/3/6 205/3/6
f 204/4/6 149/4/6 205/4/6
f 165/4/6 184/4/6 206/4/6
f 205/3/6 165/3/6 206/3/6
f 184/4/6 185/4/6 206/4/6
f 185/3/6 186/3/6 207/3/6
f 206/4/6 185/4/6 207/4/6
f 186/4/6 187/4/6 208/4/6
f 207/3/6 186/3/6 208/3/6
f 208/4/6 187/4/6 209/4/6
f 187/3/6 188/3/6 210/3/6
f 209/4/6 187/4/6 210/4/6
f 189/4/6 190/4/6 211/4/6
f 210/3/6 188/3/6 211/3/6
f 188/4/6 189/4/6 211/4/6
f 190/4/6 191/4/6 211/4/6
f 211/4/6 191/4/6 212/4/6
f 191/3/6 192/3/6 213/3/6
f 212/4/6 191/4/6 213/4/6
f 192/4/6 193/4/6 214/4/6
f 213/3/6 192/3/6 214/3/6
f 193/4/6 194/4/6 214/4/6
f 195/3/6 196/3/6 215/3/6
f 174/4/6 195/4/6 215/4/6
f 196/4/6 197/4/6 216/4/6
f 215/3/6 196/3/6 216/3/6
f 198/4/6 199/4/6 216/4/6
f 197/4/6 198/4/6 216/4/6
f 199/3/6 200/3/6 217/3/6
f 216/4/6 199/4/6 217/4/6
f 200/4/6 201/4/6 218/4/6
f 217/3/6 200/3/6 218/3/6
f 218/4/6 201/4/6 219/4/6
f 219/4/6 201/4/6 220/4/6
f 201/3/6 202/3/6 221/3/6
f 220/4/6 201/4/6 221/4/6
f 203/4/6 204/4/6 222/4/6
f 221/3/6 202/3/6 222/3/6
f 202/4/6 203/4/6 222/4/6
f 222/4/6 204/4/6 223/4/6
f 223/4/6 204/4/6 224/4/6
f 208/4/6 209/4/6 225/4/6
f 207/4/6 208/4/6 225/4/6
f 205/4/6 206/4/6 225/4/6
f 206/4/6 207/4/6 225/4/6
f 209/3/6 210/3/6 226/3/6
f 225/4/6 209/4/6 226/4/6
f 211/4/6 212/4/6 227/4/6
f 226/3/6 210/3/6 227/3/6
f 210/4/6 211/4/6 227/4/6
f 212/3/6 213/3/6 228/3/6
f 227/4/6 212/4/6 228/4/6
f 213/4/6 214/4/6 229/4/6
f 228/3/6 213/3/6 229/3/6
f 217/4/6 218/4/6 230/4/6
f 216/4/6 217/4/6 230/4/6
f 215/4/6 216/4/6 230/4/6
f 230/4/6 218/4/6 231/4/6
f 218/3/6 219/3/6 232/3/6
f 231/4/6 218/4/6 232/4/6
f 219/4/6 220/4/6 233/4/6
f 232/3/6 219/3/6 233/3/6
f 220/3/6 221/3/6 234/3/6
f 233/4/6 220/4/6 234/4/6
f 222/4/6 223/4/6 235/4/6
f 234/3/6 221/3/6 235/3/6
f 221/4/6 222/4/6 235/4/6
f 235/4/6 223/4/6 236/4/6
f 223/3/6 224/3/6 237/3/6
f 236/4/6 223/4/6 237/4/6
f 224/4/6 204/4/6 238/4/6
f 237/3/6 224/3/6 238/3/6
f 238/4/6 204/4/6 239/4/6
f 204/3/6 205/3/6 240/3/6
f 239/4/6 204/4/6 240/4/6
f 205/4/6 225/4/6 241/4/6
f 240/3/6 205/3/6 241/3/6
f 225/3/6 226/3/6 242/3/6
f 241/4/6 225/4/6 242/4/6
f 226/4/6 227/4/6 243/4/6
f 242/3/6 226/3/6 243/3/6
f 227/4/6 228/4/6 243/4/6
f 228/4/6 229/4/6 243/4/6
f 215/4/6 230/4/6 244/4/6
f 230/3/6 231/3/6 245/3/6
f 244/4/6 230/4/6 245/4/6
f 232/4/6 233/4/6 246/4/6
f 245/3/6 231/3/6 246/3/6
f 235/4/6 236/4/6 246/4/6
f 234/4/6 235/4/6 246/4/6
f 231/4/6 232/4/6 246/4/6
f 233/4/6 234/4/6 246/4/6
f 246/4/6 236/4/6 247/4/6
f 247/4/6 236/4/6 248/4/6
f 236/3/6 237/3/6 249/3/6
f 248/4/6 236/4/6 249/4/6
f 238/4/6 239/4/6 250/4/6
f 249/3/6 237/3/6 250/3/6
f 237/4/6 238/4/6 250/4/6
f 241/4/6 242/4/6 251/4/6
f 240/4/6 241/4/6 251/4/6
f 242/4/6 243/4/6 251/4/6
f 251/4/6 243/4/6 252/4/6
f 214/4/6 194/4/6 253/4/6
f 252/4/6 243/4/6 253/4/6
f 229/4/6 214/4/6 253/4/6
f 243/4/6 229/4/6 253/4/6
f 194/4/6 110/4/6 254/4/6
f 253/4/6 194/4/6 254/4/6
f 215/4/6 244/4/6 255/4/6
f 244/3/6 245/3/6 256/3/6
f 255/4/6 244/4/6 256/4/6
f 245/4/6 246/4/6 257/4/6
f 256/3/6 245/3/6 257/3/6
f 246/4/6 247/4/6 257/4/6
f 247/3/6 248/3/6 258/3/6
f 257/4/6 247/4/6 258/4/6
f 248/4/6 249/4/6 259/4/6
f 258/3/6 248/3/6 259/3/6
f 249/4/6 250/4/6 259/4/6
f 259/4/6 250/4/6 260/4/6
f 250/4/6 239/4/6 261/4/6
f 260/4/6 250/4/6 261/4/6
f 239/3/6 240/3/6 262/3/6
f 261/4/6 239/4/6 262/4/6
f 240/4/6 251/4/6 263/4/6
f 262/3/6 240/3/6 263/3/6
f 263/4/6 251/4/6 264/4/6
f 251/3/6 252/3/6 265/3/6
f 264/4/6 251/4/6 265/4/6
f 252/4/6 253/4/6 266/4/6
f 265/3/6 252/3/6 266/3/6
f 266/4/6 253/4/6 267/4/6
f 267/4/6 253/4/6 268/4/6
f 268/4/6 253/4/6 269/4/6
f 269/4/6 253/4/6 270/4/6
f 215/4/6 255/4/6 271/4/6
f 174/4/6 215/4/6 271/4/6
f 271/4/6 255/4/6 272/4/6
f 272/4/6 255/4/6 273/4/6
f 255/3/6 256/3/6 274/3/6
f 273/4/6 255/4/6 274/4/6
f 257/4/6 258/4/6 275/4/6
f 274/3/6 256/3/6 275/3/6
f 256/4/6 257/4/6 275/4/6
f 258/4/6 259/4/6 275/4/6
f 259/3/6 260/3/6 276/3/6
f 275/4/6 259/4/6 276/4/6
f 260/4/6 261/4/6 277/4/6
f 276/3/6 260/3/6 277/3/6
f 277/4/6 261/4/6 278/4/6
f 264/3/6 265/3/6 279/3/6
f 263/4/6 264/4/6 279/4/6
f 262/4/6 263/4/6 279/4/6
f 265/4/6 266/4/6 280/4/6
f 279/3/6 265/3/6 280/3/6
f 266/4/6 267/4/6 280/4/6
f 267/3/6 268/3/6 281/3/6
f 280/4/6 267/4/6 281/4/6
f 268/4/6 269/4/6 282/4/6
f 281/3/6 268/3/6 282/3/6
f 282/4/6 269/4/6 283/4/6
f 269/3/6 270/3/6 284/3/6
f 283/4/6 269/4/6 284/4/6
f 270/4/6 253/4/6 285/4/6
f 284/3/6 270/3/6 285/3/6
f 285/4/6 253/4/6 286/4/6
f 253/3/6 254/3/6 287/3/6
f 286/4/6 253/4/6 287/4/6
f 254/4/6 110/4/6 288/4/6
f 287/3/6 254/3/6 288/3/6
f 174/4/6 271/4/6 289/4/6
f 271/3/6 272/3/6 290/3/6
f 289/4/6 271/4/6 290/4/6
f 272/4/6 273/4/6 291/4/6
f 290/3/6 272/3/6 291/3/6
f 273/3/6 274/3/6 292/3/6
f 291/4/6 273/4/6 292/4/6
f 274/4/6 275/4/6 293/4/6
f 292/3/6 274/3/6 293/3/6
f 275/4/6 276/4/6 293/4/6
f 276/4/6 277/4/6 293/4/6
f 278/4/6 261/4/6 294/4/6
f 261/3/6 262/3/6 295/3/6
f 294/4/6 261/4/6 295/4/6
f 262/4/6 279/4/6 296/4/6
f 295/3/6 262/3/6 296/3/6
f 280/4/6 281/4/6 296/4/6
f 279/4/6 280/4/6 296/4/6
f 281/4/6 282/4/6 296/4/6
f 282/3/6 283/3/6 297/3/6
f 296/4/6 282/4/6 297/4/6
f 283/4/6 284/4/6 298/4/6
f 297/3/6 283/3/6 298/3/6
f 284/4/6 285/4/6 298/4/6
f 285/3/6 286/3/6 299/3/6
f 298/4/6 285/4/6 299/4/6
f 286/4/6 287/4/6 300/4/6
f 299/3/6 286/3/6 300/3/6
f 287/4/6 288/4/6 300/4/6
f 300/4/6 288/4/6 301/4/6
f 174/4/6 289/4/6 302/4/6
f 289/3/6 290/3/6 303/3/6
f 302/4/6 289/4/6 303/4/6
f 290/4/6 291/4/6 304/4/6
f 303/3/6 290/3/6 304/3/6
f 291/4/6 292/4/6 304/4/6
f 292/4/6 293/4/6 304/4/6
f 293/4/6 277/4/6 305/4/6
f 304/4/6 293/4/6 305/4/6
f 305/4/6 277/4/6 306/4/6
f 277/3/6 278/3/6 307/3/6
f 306/4/6 277/4/6 307/4/6
f 278/4/6 294/4/6 308/4/6
f 307/3/6 278/3/6 308/3/6
f 308/4/6 294/4/6 309/4/6
f 294/3/6 295/3/6 310/3/6
f 309/4/6 294/4/6 310/4/6
f 298/4/6 299/4/6 311/4/6
f 310/3/6 295/3/6 311/3/6
f 296/4/6 297/4/6 311/4/6
f 295/4/6 296/4/6 311/4/6
f 297/4/6 298/4/6 311/4/6
f 299/4/6 300/4/6 311/4/6
f 300/3/6 301/3/6 312/3/6
f 311/4/6 300/4/6 312/4/6
f 301/4/6 288/4/6 313/4/6
f 312/3/6 301/3/6 313/3/6
f 313/4/6 288/4/6 314/4/6
f 314/4/6 288/4/6 315/4/6
f 302/3/6 303/3/6 316/3/6
f 174/4/6 302/4/6 316/4/6
f 303/4/6 304/4/6 317/4/6
f 316/3/6 303/3/6 317/3/6
f 304/4/6 305/4/6 317/4/6
f 305/3/6 306/3/6 318/3/6
f 317/4/6 305/4/6 318/4/6
f 306/4/6 307/4/6 319/4/6
f 318/3/6 306/3/6 319/3/6
f 307/4/6 308/4/6 319/4/6
f 319/4/6 308/4/6 320/4/6
f 308/3/6 309/3/6 321/3/6
f 320/4/6 308/4/6 321/4/6
f 311/4/6 312/4/6 322/4/6
f 321/3/6 309/3/6 322/3/6
f 310/4/6 311/4/6 322/4/6
f 309/4/6 310/4/6 322/4/6
f 312/4/6 313/4/6 322/4/6
f 313/4/6 314/4/6 322/4/6
f 322/4/6 314/4/6 323/4/6
f 323/4/6 314/4/6 324/4/6
f 324/4/6 314/4/6 325/4/6
f 325/4/6 314/4/6 326/4/6
f 314/3/6 315/3/6 327/3/6
f 326/4/6 314/4/6 327/4/6
f 315/4/6 288/4/6 328/4/6
f 327/3/6 315/3/6 328/3/6
f 318/4/6 319/4/6 329/4/6
f 316/4/6 317/4/6 329/4/6
f 317/4/6 318/4/6 329/4/6
f 329/4/6 319/4/6 330/4/6
f 330/4/6 319/4/6 331/4/6
f 331/4/6 319/4/6 332/4/6
f 319/3/6 320/3/6 333/3/6
f 332/4/6 319/4/6 333/4/6
f 320/4/6 321/4/6 334/4/6
f 333/3/6 320/3/6 334/3/6
f 321/4/6 322/4/6 334/4/6
f 322/4/6 323/4/6 334/4/6
f 323/3/6 324/3/6 335/3/6
f 334/4/6 323/4/6 335/4/6
f 324/4/6 325/4/6 336/4/6
f 335/3/6 324/3/6 336/3/6
f 325/3/6 326/3/6 337/3/6
f 336/4/6 325/4/6 337/4/6
f 326/4/6 327/4/6 338/4/6
f 337/3/6 326/3/6 338/3/6
f 327/4/6 328/4/6 338/4/6
f 316/4/6 329/4/6 339/4/6
f 329/3/6 330/3/6 340/3/6
f 339/4/6 329/4/6 340/4/6
f 330/4/6 331/4/6 341/4/6
f 340/3/6 330/3/6 341/3/6
f 331/3/6 332/3/6 342/3/6
f 341/4/6 331/4/6 342/4/6
f 336/4/6 337/4/6 343/4/6
f 342/3/6 332/3/6 343/3/6
f 332/4/6 333/4/6 343/4/6
f 337/4/6 338/4/6 343/4/6
f 333/4/6 334/4/6 343/4/6
f 334/4/6 335/4/6 343/4/6
f 335/4/6 336/4/6 343/4/6
f 343/4/6 338/4/6 344/4/6
f 344/4/6 338/4/6 345/4/6
f 316/4/6 339/4/6 346/4/6
f 339/3/6 340/3/6 346/3/6
f 341/4/6 342/4/6 347/4/6
f 346/3/6 340/3/6 347/3/6
f 340/4/6 341/4/6 347/4/6
f 343/4/6 344/4/6 347/4/6
f 342/4/6 343/4/6 347/4/6
f 347/4/6 344/4/6 348/4/6
f 348/4/6 344/4/6 349/4/6
f 349/4/6 344/4/6 350/4/6
f 344/3/6 345/3/6 351/3/6
f 350/4/6 344/4/6 351/4/6
f 345/4/6 338/4/6 352/4/6
f 351/3/6 345/3/6 352/3/6
f 346/4/6 347/4/6 353/4/6
f 347/4/6 348/4/6 353/4/6
f 348/3/6 349/3/6 354/3/6
f 353/4/6 348/4/6 354/4/6
f 349/4/6 350/4/6 355/4/6
f 354/3/6 349/3/6 355/3/6
f 350/3/6 351/3/6 356/3/6
f 355/4/6 350/4/6 356/4/6
f 351/4/6 352/4/6 357/4/6
f 356/3/6 351/3/6 357/3/6
f 353/3/6 354/3/6 358/3/6
f 346/4/6 353/4/6 358/4/6
f 354/4/6 355/4/6 359/4/6
f 358/3/6 354/3/6 359/3/6
f 355/4/6 356/4/6 359/4/6
f 356/4/6 357/4/6 359/4/6
f 316/4/6 346/4/6 360/4/6
f 346/4/6 358/4/6 360/4/6
f 358/4/6 359/4/6 360/4/6
f 174/4/6 316/4/6 360/4/6
f 101/4/6 174/4/6 360/4/6
f 359/4/6 357/4/6 361/4/6
f 360/4/6 359/4/6 361/4/6
f 352/4/6 338/4/6 361/4/6
f 338/4/6 328/4/6 361/4/6
f 288/4/6 110/4/6 361/4/6
f 357/4/6 352/4/6 361/4/6
f 328/4/6 288/4/6 361/4/6
f 362/4/6 363/4/6 364/4/6
f 364/4/6 363/4/6 365/4/6
